<svg width="24" height="24" viewBox="0 0 24 24" fill="none" xmlns="http://www.w3.org/2000/svg">
<path d="M21.0001 12.0001C21.0001 12.199 20.9211 12.3897 20.7804 12.5304C20.6398 12.671 20.449 12.7501 20.2501 12.7501H5.56041L11.0307 18.2194C11.1004 18.2891 11.1557 18.3718 11.1934 18.4629C11.2311 18.5539 11.2505 18.6515 11.2505 18.7501C11.2505 18.8486 11.2311 18.9462 11.1934 19.0372C11.1557 19.1283 11.1004 19.211 11.0307 19.2807C10.961 19.3504 10.8783 19.4056 10.7873 19.4433C10.6962 19.4811 10.5986 19.5005 10.5001 19.5005C10.4016 19.5005 10.304 19.4811 10.2129 19.4433C10.1219 19.4056 10.0392 19.3504 9.96948 19.2807L3.21948 12.5307C3.14974 12.461 3.09443 12.3783 3.05668 12.2873C3.01894 12.1962 2.99951 12.0986 2.99951 12.0001C2.99951 11.9015 3.01894 11.8039 3.05668 11.7128C3.09443 11.6218 3.14974 11.5391 3.21948 11.4694L9.96948 4.71943C10.1102 4.5787 10.3011 4.49963 10.5001 4.49963C10.6991 4.49963 10.89 4.5787 11.0307 4.71943C11.1715 4.86016 11.2505 5.05103 11.2505 5.25005C11.2505 5.44907 11.1715 5.63995 11.0307 5.78068L5.56041 11.2501H20.2501C20.449 11.2501 20.6398 11.3291 20.7804 11.4697C20.9211 11.6104 21.0001 11.8011 21.0001 12.0001Z" fill="black"/>
</svg>
