<svg width="12" height="12" viewBox="0 0 12 12" fill="none" xmlns="http://www.w3.org/2000/svg">
<path d="M10.875 6.00003C10.875 7.29296 10.3614 8.53293 9.44715 9.44717C8.53291 10.3614 7.29293 10.875 6 10.875C4.70707 10.875 3.46709 10.3614 2.55285 9.44717C1.63861 8.53293 1.125 7.29296 1.125 6.00003C1.125 4.07815 2.24109 2.3269 3.96844 1.53424C4.01319 1.51368 4.06155 1.50214 4.11077 1.50027C4.15998 1.4984 4.20908 1.50624 4.25526 1.52335C4.30145 1.54046 4.34381 1.56649 4.37993 1.59997C4.41605 1.63345 4.44522 1.67371 4.46578 1.71846C4.48634 1.76321 4.49789 1.81158 4.49975 1.86079C4.50162 1.91 4.49378 1.9591 4.47668 2.00529C4.45957 2.05147 4.43353 2.09383 4.40006 2.12995C4.36658 2.16607 4.32631 2.19525 4.28156 2.21581C2.81953 2.88706 1.875 4.37206 1.875 6.00003C1.875 7.09404 2.3096 8.14325 3.08318 8.91684C3.85677 9.69043 4.90598 10.125 6 10.125C7.09402 10.125 8.14323 9.69043 8.91682 8.91684C9.6904 8.14325 10.125 7.09404 10.125 6.00003C10.125 4.37206 9.18047 2.88706 7.71844 2.21581C7.62806 2.17428 7.55787 2.09856 7.52332 2.00529C7.48878 1.91202 7.4927 1.80884 7.53422 1.71846C7.57574 1.62808 7.65147 1.5579 7.74474 1.52335C7.83801 1.4888 7.94118 1.49272 8.03156 1.53424C9.75891 2.3269 10.875 4.07815 10.875 6.00003Z" fill="#CB7A01"/>
</svg>
